<svg width="48" height="48" viewBox="0 0 48 48" fill="none" xmlns="http://www.w3.org/2000/svg">
<path d="M13.2081 29.5135L0 42.8108L5.15436 48L18.3624 34.7027L13.2081 29.5135Z" fill="white"/>
<path d="M15.4631 27.8919L18.0403 30.4865L19.3289 31.4595L23.1946 27.8919L20.9396 25.6216L19.3289 23.6757L18.6846 22.3784L18.0403 20.4324L17.7181 19.4595V15.5676L18.0403 14.2703L18.6846 12.973L19.3289 11.6757L19.9732 10.3784L21.906 8.43243L23.5168 7.13513L24.8054 6.48649L26.094 5.83784L27.7047 5.18919H32.2148L34.4698 5.83784L36.0805 6.48649L37.3691 7.13513L40.5906 10.3784L41.8792 12.973L42.5235 14.9189V20.1081L41.8792 22.0541L41.2349 23.3514L39.9463 25.2973L37.047 27.8919L34.7919 29.1892L33.1812 29.8378H27.7047L25.7718 29.5135L23.5168 28.2162L19.651 31.7838L21.2617 33.0811L23.1946 34.0541L24.8054 34.7027L26.4161 35.027L27.7047 35.3513H33.8255L34.7919 35.027L36.4027 34.3784L38.3356 33.7297L40.2685 32.7568L42.2013 31.1351L44.1342 29.1892L45.4228 27.2432L46.3893 25.2973L47.0336 23.6757L47.6778 22.0541L48 21.0811V14.5946L47.6778 12.973L47.0336 11.027L45.745 8.43243L44.4564 6.48649L42.8456 4.86486L40.5906 3.24324L38.3356 1.62162L36.0805 0.648649L33.5034 0H26.7383L24.4832 0.648649L22.5503 1.2973L20.2953 2.59459L18.3624 3.89189L16.1074 6.81081L14.1745 9.72973L13.5302 11.6757L12.8859 13.9459V22.0541L13.5302 24.3243L15.4631 27.8919Z" fill="white"/>
<path d="M18.0407 14.2705V20.433L17.0742 20.1086L17.3964 14.5951L18.0407 14.2705Z" fill="white"/>
<path d="M19.3281 31.4592L19.6503 31.7835L23.516 28.2159L23.1939 27.8916L19.3281 31.4592Z" fill="white"/>
<path d="M12.5645 21.4059L13.5309 24.3249L13.853 10.7031L12.5645 14.2708V21.4059Z" fill="white"/>
</svg>
